<svg width="111" height="95" viewBox="0 0 111 95" fill="none" xmlns="http://www.w3.org/2000/svg">
<path d="M75.8215 39.9276C76.6915 40.1976 78.1616 40.4276 78.0016 41.6276C77.9316 42.9076 77.4315 44.2176 76.6415 45.2276C76.2015 45.7776 75.5316 46.0976 75.1816 46.7176C74.9716 47.1376 75.5216 47.2476 75.7516 47.4576C76.3716 48.0976 77.0216 48.8876 76.9916 49.8276C77.0216 50.5576 76.9416 51.3976 76.3316 51.8776C75.6616 52.3576 75.0415 52.9076 74.3815 53.3976C73.4515 53.9176 72.3215 53.9976 71.5415 54.7776C71.0815 55.1076 71.6916 55.5176 71.9316 55.7576C72.6416 56.3376 73.4915 56.7376 74.1415 57.4076C74.5516 57.8676 75.0916 58.2976 75.2216 58.9176C75.3216 59.6676 75.0016 60.5676 74.3416 60.9776C73.2316 61.4376 72.8415 61.3276 73.0415 62.7076C73.0415 62.7776 73.0215 62.8376 72.9815 62.8876C73.0615 63.5876 73.0416 64.2876 72.9016 64.9876C72.7016 66.0876 72.2915 67.2776 71.2315 67.7976C69.8215 68.8476 67.9816 68.7776 66.3016 68.7676C64.8016 68.7776 63.3016 68.7576 61.8016 68.7776C60.6216 68.9076 59.3816 69.3876 58.5016 70.1976C58.1016 70.5676 57.6915 70.8776 57.3215 71.2676C56.9515 71.7176 56.7116 72.2576 56.4216 72.7576C56.0215 73.5076 55.5816 74.2476 55.3016 75.0476C54.8716 76.4276 54.6015 77.8276 54.5115 79.2676C54.4715 79.5676 54.5215 80.1476 54.0715 80.0676C54.0215 80.0576 53.9815 80.0276 53.9415 79.9976C53.9215 79.9976 53.8916 79.9976 53.8716 79.9976C52.1816 79.8576 50.6516 78.8976 48.9716 78.7676C48.2316 78.6476 47.4916 78.5176 46.7416 78.4776C46.2616 78.4376 45.7316 78.2776 45.2716 78.4476C46.0416 79.1576 47.1816 79.2976 48.0216 79.9176C51.4816 82.0376 55.1415 83.9076 58.1615 86.6576C59.1915 87.5976 60.1316 88.6376 60.9616 89.7576C61.6316 90.9276 62.2416 92.1776 62.5516 93.4976C62.5816 93.7676 62.7315 94.0076 62.5715 94.2476C62.5115 94.3276 62.4316 94.3676 62.3416 94.3776C62.1516 94.5776 61.8516 94.6876 61.5816 94.6376C61.0416 94.5476 60.5415 94.3076 60.0415 94.0776C58.9015 93.5976 57.6916 93.2076 56.5516 92.8076C53.3816 91.5376 50.1316 90.4276 46.8416 89.5676C45.5916 89.3076 44.3716 88.9476 43.1116 88.7876C42.1816 88.5376 41.2516 88.2376 40.3016 88.1176C39.3216 87.8776 38.4015 87.7976 37.4115 87.7176C36.8815 87.6376 36.3816 87.4876 35.8616 87.4376C34.9516 87.3676 34.1215 87.2976 33.2315 87.2176C32.2315 87.1976 31.2416 87.2176 30.2516 87.1076C29.4816 87.0576 28.7116 87.1876 27.9316 87.1776C27.2416 87.1676 26.5515 87.1576 25.8815 87.2876C24.4115 87.5776 22.8916 87.4276 21.4616 87.9176C20.7516 88.1176 19.8616 87.8476 19.7216 87.0476C19.7016 86.9076 19.7216 86.7776 19.7516 86.6476C19.6716 86.3976 19.9115 85.9776 19.9515 85.7676C20.5716 84.0876 21.8916 82.7976 23.1116 81.5376C25.5916 79.1276 28.4815 77.0776 30.4415 74.1976C31.0815 73.1176 31.5315 71.9576 31.8815 70.7676C31.9715 70.3976 32.1516 70.0176 32.0816 69.6476C32.0216 69.6776 31.9516 69.6776 31.8716 69.6576C30.2516 68.9876 28.6916 68.1176 27.3316 67.0076C26.5716 66.3576 25.7215 65.8376 24.9415 65.2276C24.8115 65.1476 24.6916 64.9576 24.5616 64.8576C24.7216 65.2176 24.8916 65.6276 24.9016 66.0076C24.8616 66.2276 24.5716 66.3476 24.3916 66.2076C24.1116 65.9276 23.8816 65.5976 23.6116 65.2976C23.6216 65.3476 23.6316 65.3976 23.6516 65.4376C23.7216 65.7176 23.8216 65.9576 23.9216 66.2076C24.0316 66.4976 24.1615 66.7576 24.2315 67.0476C24.3315 67.3776 23.9516 67.6676 23.7116 67.3876C23.6216 67.3976 23.5215 67.3676 23.4415 67.2976C22.3315 66.4076 21.3616 65.3476 20.2516 64.4376C19.2116 63.5176 18.1116 62.5776 17.3116 61.4476C16.3616 60.2376 15.3216 59.1176 14.5016 57.8076C14.0116 57.0876 13.4316 56.3876 13.0916 55.5776C13.0516 55.7476 12.9915 55.9276 12.9515 56.0976C12.7715 56.7476 13.0816 57.3976 13.2816 57.9976C13.5816 58.6976 13.8816 59.3976 14.2116 60.0876C14.4116 60.5076 13.7716 60.8276 13.5616 60.3976C13.5416 60.3576 13.5215 60.3176 13.5115 60.2876C13.1515 60.1776 11.8216 59.4976 11.5016 59.0176C11.4616 58.9876 11.4316 58.9576 11.3916 58.9276C10.9116 58.5076 10.4816 58.0276 10.0916 57.5276C10.0916 57.5176 10.0815 57.5176 10.0715 57.5076C9.44154 56.6976 8.89154 55.8276 8.38154 54.9376C7.88154 54.0576 7.43155 53.1376 7.01155 52.2176C6.93155 52.0276 6.84157 51.8476 6.78157 51.6976C6.77157 51.6776 6.76157 51.6476 6.75157 51.6276C6.36157 50.7176 6.00156 49.7876 5.68156 48.8576C5.45156 48.1876 5.23156 47.5076 5.05156 46.8776C4.77156 45.8976 4.52154 44.9076 4.32154 43.9076C4.12154 42.9076 3.96154 41.8876 3.88154 40.8676C3.80154 39.8876 3.79154 38.8876 3.94154 37.9176C3.96154 37.7676 3.99156 37.6276 4.02156 37.5276C4.08156 37.2876 4.15156 37.0576 4.24156 36.8376C4.27156 36.7576 4.31156 36.6876 4.34156 36.6176C4.35156 36.5976 4.36155 36.5876 4.36155 36.5676C4.34155 36.5576 4.31155 36.5476 4.29155 36.5376C4.22155 36.6276 4.12154 36.7176 4.07154 36.7876C3.45154 37.4076 3.11155 38.2176 2.83155 39.0276C2.56155 39.6676 2.37155 40.2376 2.26155 40.9076C1.93155 42.0476 1.90157 43.2476 2.00157 44.4276C2.06157 44.7076 2.18155 45.1076 1.79155 45.1976C1.65155 45.2276 1.50155 45.1676 1.42155 45.0476C1.37155 45.0176 1.32156 44.9676 1.30156 44.9076C1.17156 44.6276 1.08157 44.3276 1.00157 44.0276C0.921568 43.7076 0.871545 43.3776 0.821545 43.0576C0.761545 42.7276 0.681543 42.3976 0.601543 42.1176C0.541543 41.9176 0.48156 41.7276 0.43156 41.5276C0.38156 41.3176 0.341565 41.1076 0.311565 40.8876C0.281565 40.6676 0.261558 40.4576 0.241558 40.2376C0.221558 40.0276 0.191541 39.8276 0.161541 39.6676C0.151541 39.5976 0.141552 39.5376 0.141552 39.5176C0.0915519 39.1676 0.021547 38.8076 0.011547 38.4576C0.00154701 38.1076 0.011547 37.7576 0.011547 37.4176V37.3376C0.00154701 37.0776 -0.00845299 36.8176 0.011547 36.5576C0.021547 36.3076 0.0515446 36.0576 0.0715446 35.8076C0.111545 35.2976 0.151559 34.7776 0.211559 34.2676C0.221559 34.1976 0.221548 34.1276 0.231548 34.1076C0.241548 34.0376 0.241568 33.9676 0.251568 33.9476C0.261568 33.8776 0.271557 33.8076 0.271557 33.7876C0.301557 33.5176 0.341542 33.2576 0.381542 32.9976C0.431542 32.7376 0.491556 32.4776 0.551556 32.2176C0.561556 32.1876 0.571545 32.1576 0.571545 32.1576C0.631545 31.9076 0.711556 31.6576 0.801556 31.4176C0.891556 31.1776 0.991564 30.9476 1.09156 30.7176C1.28156 30.2576 1.50157 29.8076 1.72157 29.3476C1.94157 28.8976 2.17155 28.4476 2.39155 27.9876C2.62155 27.5176 2.84155 27.0576 3.11155 26.6076C3.20155 26.4576 3.31156 26.3076 3.40156 26.1776C3.62156 25.8876 3.84154 25.6076 4.07154 25.3276C4.18154 25.1876 4.30155 25.0576 4.42155 24.9276C4.55155 24.7976 4.67155 24.6676 4.79155 24.5276C4.84155 24.4676 4.88154 24.4076 4.91154 24.3476C4.91154 24.3476 4.91155 24.3376 4.92155 24.3376C4.95155 24.2876 4.98157 24.2376 5.00157 24.1776C5.01157 24.1576 5.02156 24.1276 5.02156 24.0976C5.02156 24.0876 5.02156 24.0776 5.02156 24.0676C5.02156 24.0476 5.02156 24.0276 5.02156 24.0176C5.02156 24.0076 5.02156 23.9976 5.02156 23.9876C5.02156 23.9776 5.02155 23.9676 5.01155 23.9676C5.01155 23.9676 5.01157 23.9576 5.00157 23.9576V23.9476C5.00157 23.9476 5.00157 23.9476 5.00157 23.9376C5.00157 23.9276 4.99155 23.9276 4.98155 23.9176C4.97155 23.9076 4.96155 23.8976 4.95155 23.8976C4.94155 23.8876 4.93155 23.8876 4.92155 23.8776C3.92155 23.6076 2.90154 23.7376 1.88154 23.7276C1.53154 23.7376 1.18156 23.7676 0.841564 23.8376C0.801564 23.8476 0.761569 23.8476 0.721569 23.8376C0.561569 23.9676 0.38154 24.0576 0.19154 23.8976C-0.81846 22.9476 5.26157 20.8176 6.00157 20.7476C6.12157 20.7376 6.90154 20.5476 7.35154 20.5276C7.30154 20.3276 7.34156 20.0676 7.34156 19.8876C7.42156 18.7976 7.66157 17.7176 7.81157 16.6376C8.03157 15.4576 8.61154 14.4376 9.10154 13.3676C9.36154 12.6176 9.85156 12.0076 10.3416 11.3976C10.7416 10.7576 11.3116 10.2776 11.8616 9.77757C13.2416 8.47757 14.7115 7.13757 16.5415 6.54757C16.5815 6.53757 16.6416 6.52757 16.7216 6.50757C16.8416 6.39757 16.9916 6.39758 17.1116 6.45758C17.3316 6.44758 17.5016 6.49757 17.4016 6.69757C17.3716 6.71757 17.3416 6.72757 17.3116 6.74757C17.3216 6.83757 17.2916 6.93757 17.2116 7.02757C16.6516 7.75757 16.1116 8.48757 15.5216 9.19757C15.1216 9.75757 14.7916 10.3776 14.3716 10.9276C14.0816 11.3676 13.8116 11.8276 13.6516 12.3276C13.3616 13.1176 13.0416 13.8576 13.1516 14.6976C13.1516 14.6876 13.1616 14.6876 13.1716 14.6776C13.5416 14.0576 14.0416 13.4976 14.5816 13.0376C15.5716 12.1376 16.5416 11.2976 17.6116 10.4976C19.2816 9.20757 21.0115 7.99757 22.8515 6.96757C24.0115 6.33757 25.1116 5.59757 26.2416 4.91757C27.2916 4.17757 28.4016 3.48758 29.2116 2.48758C29.7616 1.85758 30.4416 1.25757 30.8116 0.507565C30.7716 0.357565 30.8415 0.247573 30.9415 0.187573C30.9515 0.167573 30.9516 0.15757 30.9616 0.13757C30.9516 -0.00242975 31.1616 -0.0524218 31.2116 0.0675782C31.2316 0.107578 31.2515 0.157568 31.2615 0.197568C31.3115 0.227568 31.3416 0.287571 31.3716 0.357571C31.4316 0.587572 31.4916 0.877567 31.4916 1.08757C31.5616 1.83757 31.4916 2.58757 31.2716 3.30757C31.1116 3.94757 30.7015 4.48757 30.5715 5.13757C30.4715 5.45757 30.5816 5.76758 30.6516 6.06758C31.3016 5.59758 32.0516 5.28756 32.7516 4.89756C33.7816 4.41756 34.8716 4.10757 35.9716 3.88757C37.5416 3.51757 39.1116 3.12757 40.7416 3.16757C41.9616 3.04757 43.1916 3.01758 44.4016 3.06758C45.7016 2.95758 47.0016 3.14757 48.3016 3.18757C49.8016 3.23757 51.2615 3.62758 52.7615 3.56758C54.3715 3.78758 55.9916 3.55758 57.5616 3.20758C58.7616 3.01758 59.9415 2.63757 60.9415 1.97757C61.0715 1.90757 61.2616 1.78758 61.4316 1.70758C61.5816 1.55758 61.8415 1.53757 61.9815 1.74757C62.0616 1.83757 62.0516 2.02758 62.0216 2.12758C61.8616 2.77758 61.5516 3.36757 61.1216 3.86757C60.4316 4.62757 59.6115 5.27757 58.7315 5.80757C58.1815 6.05757 57.6216 6.28757 57.0616 6.50757C57.1016 6.65757 57.0516 6.83758 56.8716 6.95758C57.7216 6.79758 58.5916 6.75757 59.4616 6.79757C60.5016 6.83757 61.5316 6.99757 62.5516 7.22757C63.5616 7.45757 64.5416 7.78758 65.5016 8.17758C65.7316 8.26758 65.9615 8.36757 66.1615 8.46757C66.1815 8.47757 66.1916 8.48758 66.2116 8.48758C66.8716 8.78758 67.5115 9.12757 68.1315 9.50757C68.1315 9.50757 68.1415 9.50758 68.1415 9.51758C68.1516 9.52758 68.1615 9.52757 68.1615 9.52757C68.1715 9.52757 68.1815 9.53756 68.1915 9.53756C68.6215 9.79756 69.0415 10.0776 69.4415 10.3676C69.8715 10.6876 70.2816 11.0376 70.6816 11.3976C70.8816 11.5776 71.0815 11.7676 71.2615 11.9576L71.2716 11.9676C71.2716 11.9776 71.2816 11.9776 71.2816 11.9876C71.2816 11.9976 71.2915 11.9976 71.3016 12.0076C71.6716 12.3976 72.0216 12.8176 72.3316 13.2576C72.4715 13.4676 72.6115 13.6776 72.7315 13.8976C72.8615 14.1276 72.9816 14.3576 73.0816 14.5976C73.2316 14.9476 73.3415 15.3276 73.4215 15.7076C73.4615 15.8976 73.4916 16.0876 73.4916 16.2876C73.5016 16.4276 73.4815 16.5676 73.4815 16.6976C73.4815 16.7276 73.4716 16.7476 73.4616 16.7676C73.4316 16.8476 73.3715 16.8976 73.2615 16.9076C73.1115 16.8476 73.0416 16.6776 72.9716 16.5476C72.8416 16.3076 72.6915 16.0876 72.5415 15.8776C71.8615 14.9276 71.0116 14.0776 70.0616 13.3976C69.0516 12.8676 68.0416 12.2476 66.9616 11.8876C66.6716 11.7976 66.3816 11.7776 66.0816 11.7676C66.2915 11.9976 66.4815 12.2376 66.6015 12.3476C68.3515 14.5076 70.0015 16.6376 70.5715 19.4376C70.8215 21.0176 71.2115 22.7076 70.6315 24.2576C70.3815 24.9276 69.8515 25.4676 69.7015 26.1576C69.7315 26.3676 69.7816 26.5876 69.7716 26.7876C69.8516 27.8976 69.8516 29.0076 69.9016 30.1276C70.0616 31.9076 69.8215 33.8076 70.3815 35.5176C70.7315 36.3576 71.2915 37.0976 71.8016 37.8276C72.4616 38.8476 73.2516 39.3776 74.4316 39.5576C74.9416 39.5876 75.3815 39.7776 75.8215 39.9276Z" fill="#9B4EDA"/>
<path d="M92.6114 36.5876C93.2714 37.1576 93.6714 38.1276 93.4114 38.9876C93.0114 39.8776 92.1514 40.4976 91.3614 41.0376C90.1614 41.7176 88.8814 42.2576 87.6914 42.9476C87.1014 43.2376 86.6314 43.7076 86.0914 44.0776C85.4114 44.4976 84.7714 44.9776 84.1614 45.4876C83.7414 45.8276 83.2014 46.0876 82.8214 46.4576C82.5314 46.7076 82.2014 47.2076 81.7514 47.0376C81.6814 46.9976 81.6214 46.9376 81.5914 46.8576C81.5814 46.8576 81.5714 46.8576 81.5714 46.8676C81.5314 46.9076 81.4514 46.8776 81.4414 46.8176C81.4414 46.7876 81.4614 46.7576 81.4814 46.7476C81.4614 46.1076 81.7914 45.5576 82.0514 44.9976C82.6414 43.6876 83.4314 42.4676 84.3714 41.3676C84.8214 40.8276 85.1914 40.2276 85.6314 39.6876C86.0714 39.1776 86.6514 38.7376 87.1314 38.2776C87.5614 37.8176 88.0414 37.3776 88.6014 37.0676C89.1614 36.6576 89.8114 36.2976 90.5214 36.2576C91.2314 36.1076 92.0414 36.0776 92.6114 36.5876Z" fill="#9B4EDA"/>
<path d="M101.681 45.3676C101.821 45.9476 101.751 46.5776 101.621 47.1576C101.131 48.2776 99.6915 48.3376 98.6815 48.7176C96.6715 49.4676 94.5015 49.6576 92.4115 50.1176C90.8515 50.4376 89.3215 50.9276 87.8015 51.3776C86.4915 51.7076 85.1915 52.0576 83.9115 52.4576C82.9115 52.7376 81.8815 52.9476 80.9215 53.3376C80.7815 53.4176 80.6015 53.3876 80.4915 53.2676C80.4615 53.2576 80.4415 53.2176 80.4315 53.1976C80.3415 53.0176 80.4215 52.7576 80.6215 52.6876C80.8615 52.6276 81.0115 52.4376 81.2015 52.2976C82.0215 51.8076 82.7415 51.2176 83.5515 50.7376C84.5115 50.2376 85.3315 49.5376 86.3015 49.0576C86.9215 48.5976 87.6515 48.2176 88.2615 47.7876C88.8715 47.2876 89.6515 46.9776 90.3315 46.6176C92.2615 45.5576 94.2615 44.6876 96.3215 43.9176C97.8515 43.5376 99.9515 42.9276 101.131 44.3276C101.361 44.6776 101.531 44.9976 101.681 45.3676Z" fill="#9B4EDA"/>
<path d="M93.8916 55.7276C94.9016 55.8376 96.2116 56.2676 95.9816 57.5376C95.8716 57.9976 95.7116 58.4976 95.3616 58.8276C94.8616 59.1776 94.2116 59.3476 93.6116 59.3376C90.9016 59.3076 88.2816 58.5876 85.6416 58.0376C84.2116 57.7676 82.7616 57.2776 81.3016 57.3776C81.1816 57.3876 81.1016 57.4276 80.9916 57.4176C80.8016 57.4076 80.6515 57.2276 80.6615 57.0476C80.3615 56.7276 81.2215 56.6676 81.4115 56.6476C82.6615 56.3576 83.9416 56.2676 85.2016 56.0476C86.5516 55.8976 87.9916 55.8976 89.3316 55.7376C90.8416 55.5176 92.3916 55.5576 93.8916 55.7276Z" fill="#9B4EDA"/>
<path d="M10.7115 17.7876C10.6715 17.7376 10.6315 17.6776 10.6115 17.6076C10.5915 17.5376 10.6015 17.4676 10.6215 17.3876C10.6515 17.2576 10.7615 17.1576 10.8615 17.0776C11.0315 16.9076 11.1915 16.7376 11.3615 16.5676C11.3215 16.4576 11.3315 16.3176 11.4115 16.2276C11.4815 16.1376 11.5615 16.0576 11.6415 15.9876C11.7315 15.9076 11.8315 15.8376 11.9215 15.7576C11.9815 15.7076 12.0315 15.6676 12.0815 15.6176C12.2215 15.4976 12.3715 15.3776 12.5115 15.2576C12.7815 15.0176 13.0615 14.7776 13.3415 14.5376C13.5615 14.3376 13.7815 14.1376 14.0015 13.9476C14.1715 13.7876 14.3515 13.6376 14.5215 13.4776C14.8315 13.1976 15.1315 12.9176 15.4415 12.6476C15.3915 12.6876 15.3415 12.7276 15.2915 12.7676C14.8015 13.1576 14.3215 13.5476 13.8415 13.9476C13.6915 14.0676 13.5515 14.1876 13.4015 14.3076C13.7415 13.8276 14.1515 13.3876 14.5915 13.0076C15.5815 12.1076 16.5515 11.2676 17.6215 10.4676C18.6615 9.66758 19.7215 8.88758 20.8315 8.16758C20.9515 8.15758 21.0815 8.20758 21.1615 8.30758C21.2715 8.44758 21.2515 8.65757 21.1315 8.78757C21.0115 8.91757 20.8715 9.03758 20.7415 9.16758C20.7315 9.23758 20.6915 9.29758 20.6415 9.34758C20.6315 9.35758 20.6215 9.35757 20.6215 9.36757C20.6115 9.37757 20.6015 9.39758 20.5815 9.40758C20.4915 9.48758 20.3915 9.56758 20.3015 9.65758C20.2215 9.72758 20.1515 9.78758 20.0715 9.85758C19.8815 10.0276 19.6915 10.1876 19.5015 10.3576C19.5015 10.3576 19.5015 10.3576 19.5115 10.3476C19.1415 10.6776 18.7615 11.0076 18.4015 11.3476C18.2015 11.5376 18.0015 11.7276 17.8015 11.9176C17.6615 12.0576 17.5115 12.1976 17.3715 12.3376C16.9715 12.7276 16.5715 13.1176 16.1715 13.4976C15.7515 13.8976 15.3415 14.3076 14.9215 14.6976C14.8215 14.7976 14.7215 14.8876 14.6215 14.9876C14.4115 15.1976 14.1915 15.3976 13.9715 15.5976C13.7915 15.7676 13.6215 15.9376 13.4415 16.1076C13.1815 16.3376 12.9215 16.5676 12.6715 16.7976C12.3115 17.1176 11.9415 17.4376 11.5315 17.6976C11.4115 17.7676 11.2815 17.8276 11.1615 17.8976C11.1015 17.9276 11.0415 17.9476 10.9815 17.9476C10.8915 17.9276 10.7915 17.8776 10.7115 17.7876Z" fill="#9B4EDA"/>
<path d="M11.3514 15.5776C10.9714 15.2476 11.4315 14.9176 11.7115 14.7276C12.2415 14.3276 12.7615 13.9176 13.2715 13.4976C13.1815 13.8276 13.1414 14.1676 13.1614 14.5176C13.1114 14.5576 13.0614 14.5976 13.0114 14.6376C12.9314 14.8676 12.6615 14.9876 12.5015 15.1576C12.1815 15.3776 11.7614 15.8576 11.3514 15.5776Z" fill="#9B4EDA"/>
<path d="M15.0716 25.7175C14.9216 25.6675 14.7816 25.5875 14.6916 25.4575C14.5816 25.3175 14.5817 25.1175 14.5917 24.9475C14.6117 24.7675 14.6917 24.6175 14.7617 24.4575C14.8517 24.2775 14.9417 24.0975 15.0417 23.9275C15.1917 23.6575 15.3517 23.3975 15.5017 23.1375C15.5417 23.0675 15.5916 22.9975 15.6316 22.9375C15.7416 22.7775 15.8416 22.6075 15.9416 22.4475C16.0216 22.3175 16.1017 22.1975 16.1817 22.0675L16.1717 22.0775C16.3117 21.8575 16.4617 21.6475 16.6117 21.4375C16.7617 21.2175 16.9117 20.9975 17.0617 20.7775C17.2017 20.5775 17.3417 20.3775 17.4917 20.1775C17.6817 19.9075 17.8816 19.6275 18.0716 19.3575C18.4016 18.8975 18.7217 18.4275 19.0517 17.9675C19.0817 17.9175 19.1117 17.8775 19.1517 17.8275C19.4817 17.3375 19.8117 16.8475 20.1517 16.3575C20.1517 16.3575 20.1517 16.3575 20.1417 16.3675L20.1517 16.3575C20.4317 15.9075 20.7117 15.4475 21.0017 14.9975C21.0417 14.9375 21.0716 14.8775 21.1016 14.8175C21.1916 14.6575 21.2816 14.4975 21.3816 14.3375C21.5616 14.0275 21.7317 13.7275 21.8917 13.4075C21.8117 13.4575 21.7217 13.4975 21.6417 13.5475C21.3817 13.7175 21.1217 13.8775 20.8617 14.0475C20.6417 14.2075 20.4116 14.3575 20.1916 14.5175C20.0016 14.6475 19.8017 14.7875 19.6117 14.9175C19.1217 15.2775 18.6316 15.6275 18.1316 15.9875C17.7816 16.2375 17.4417 16.4975 17.0917 16.7475C17.1017 16.7675 17.1117 16.7875 17.1117 16.8075C17.1217 16.8775 17.0717 16.9475 16.9917 16.9575C16.9117 16.9675 16.8317 16.9775 16.7517 16.9875C16.7417 16.9975 16.7217 17.0075 16.7117 17.0175C16.2717 17.3375 15.8317 17.6575 15.3917 17.9875C14.9217 18.3275 14.4617 18.6675 13.9717 18.9775C13.7817 19.0975 13.5817 19.2175 13.3917 19.3375C13.2017 19.4575 13.0017 19.5575 12.8017 19.6475C12.6017 19.7375 12.3917 19.8275 12.1817 19.8675C12.0717 19.8975 11.9417 19.9075 11.8317 19.8975C11.7217 19.8775 11.6317 19.8475 11.5417 19.7975C11.5317 19.7975 11.5217 19.7875 11.5117 19.7875H11.5017C11.5017 19.7875 11.5017 19.7875 11.5117 19.7875C11.5017 19.7775 11.4817 19.7775 11.4717 19.7675C11.2917 19.6875 11.2017 19.4775 11.2817 19.2975C11.3117 19.2275 11.3417 19.1475 11.3717 19.0775C11.4117 18.9975 11.4617 18.9275 11.5117 18.8575C11.5917 18.7375 11.6917 18.6275 11.7817 18.5175C11.8717 18.4075 11.9617 18.2975 12.0617 18.1875C12.1517 18.0775 12.2417 17.9775 12.3317 17.8675C12.3217 17.8675 12.3117 17.8675 12.2917 17.8675C12.2117 17.8575 12.1417 17.8175 12.0817 17.7675C12.0217 17.7075 11.9917 17.6375 11.9817 17.5575C11.9817 17.5475 11.9817 17.5275 11.9817 17.5175C11.9217 17.5575 11.8517 17.5975 11.7817 17.6375C11.7117 17.6775 11.6217 17.7175 11.5417 17.7375C11.5017 17.7475 11.4516 17.7575 11.4116 17.7575C11.3716 17.7575 11.3217 17.7575 11.2817 17.7675C11.1617 17.7775 11.0317 17.6975 10.9717 17.5875C10.9117 17.4775 10.9017 17.3275 10.9717 17.2275C11.0117 17.1575 11.0617 17.0875 11.1117 17.0175C11.1617 16.9475 11.2317 16.8875 11.2917 16.8275C11.3417 16.7775 11.3916 16.7275 11.4416 16.6675C11.5416 16.5675 11.6417 16.4575 11.7417 16.3575C11.8317 16.2675 11.9217 16.1775 12.0117 16.0875C11.9517 16.1075 11.8917 16.1175 11.8317 16.1275C11.6917 16.1475 11.5417 16.0775 11.4717 15.9575C11.3917 15.8175 11.4117 15.6375 11.5317 15.5175C11.6117 15.4375 11.7017 15.3575 11.7817 15.2875C11.7817 15.2875 11.7817 15.2875 11.7917 15.2775C11.7917 15.2775 11.7917 15.2775 11.8017 15.2775C11.8117 15.2675 11.8217 15.2575 11.8317 15.2575C11.8417 15.2475 11.8416 15.2475 11.8516 15.2375C11.8516 15.2375 11.8417 15.2375 11.8417 15.2475C11.8517 15.2375 11.8617 15.2275 11.8717 15.2275C11.8817 15.2175 11.8916 15.2075 11.9116 15.1975C11.9116 15.1975 11.9117 15.1975 11.9217 15.1875C11.9217 15.1875 11.9116 15.1875 11.9116 15.1975C11.9416 15.1675 11.9717 15.1375 12.0117 15.1075L12.0217 15.0975C12.0117 15.1075 12.0117 15.1075 12.0017 15.1175C12.0217 15.0975 12.0416 15.0775 12.0716 15.0575C12.0616 15.0675 12.0517 15.0675 12.0517 15.0775C12.0617 15.0675 12.0717 15.0575 12.0817 15.0575C12.0817 15.0575 12.0816 15.0575 12.0716 15.0675L12.0817 15.0575C12.0917 15.0475 12.0916 15.0475 12.1016 15.0375L12.0917 15.0475L12.0817 15.0575C12.2617 14.8975 12.4417 14.7375 12.6217 14.5675C12.8217 14.3875 13.0117 14.2075 13.2017 14.0275L13.2117 14.0175C13.1817 14.2375 13.1817 14.4575 13.2117 14.6875C13.2117 14.6775 13.2217 14.6775 13.2217 14.6675C13.5917 14.0475 14.0916 13.4875 14.6316 13.0275C15.1716 12.5375 15.7017 12.0675 16.2517 11.6075C16.2617 11.6675 16.2517 11.7375 16.2317 11.7975C16.2117 11.8475 16.1916 11.8975 16.1616 11.9375C16.4216 11.6975 16.6917 11.4575 16.9617 11.2275C17.0917 11.1175 17.2117 11.0075 17.3417 10.8975C17.4817 10.7775 17.6217 10.6575 17.7617 10.5375C17.9117 10.4175 18.0517 10.2975 18.2017 10.1775C18.3417 10.0675 18.5517 10.0775 18.6817 10.2075C18.8217 10.3475 18.8217 10.5775 18.6817 10.7175C18.4817 10.9175 18.2816 11.0975 18.0716 11.2875C17.8816 11.4675 17.6817 11.6475 17.4917 11.8275C17.0517 12.2475 16.6117 12.6575 16.1717 13.0775C15.6917 13.5375 15.2217 13.9875 14.7517 14.4475C14.8617 14.3575 14.9616 14.2675 15.0716 14.1775C15.5016 13.8175 15.9216 13.4575 16.3516 13.0975C16.7316 12.7775 17.1117 12.4675 17.4917 12.1475C17.8717 11.8275 18.2617 11.5075 18.6517 11.1975C19.0817 10.8475 19.5217 10.4975 19.9617 10.1575C20.3217 9.88754 20.6717 9.60753 21.0317 9.33753C21.2417 9.18753 21.4516 9.02754 21.6616 8.87754C21.7316 8.82754 21.8017 8.77753 21.8717 8.72753C21.9317 8.67753 22.0016 8.63753 22.0716 8.58753C22.1116 8.55753 22.1417 8.52754 22.1817 8.49754C22.2417 8.44754 22.3017 8.38754 22.3717 8.35754C22.3917 8.34754 22.4117 8.32754 22.4317 8.31754C22.5317 8.24754 22.6317 8.17754 22.7317 8.10754C22.8317 8.04754 22.9317 7.98753 23.0416 7.94753C23.1916 7.87753 23.3717 7.93753 23.4717 8.05753C23.5817 8.19753 23.5716 8.40754 23.4416 8.52754C23.2416 8.71754 23.0417 8.88753 22.8317 9.05753C22.6417 9.21753 22.4517 9.37753 22.2617 9.53753C21.9517 9.79753 21.6416 10.0675 21.3216 10.3275L21.3317 10.3175C21.3217 10.3275 21.3217 10.3275 21.3117 10.3375C21.3017 10.3375 21.3017 10.3475 21.2916 10.3475C21.2916 10.3475 21.3017 10.3475 21.3017 10.3375C21.0817 10.5375 20.8516 10.7275 20.6316 10.9175C20.3916 11.1275 20.1516 11.3375 19.9116 11.5375C19.9116 11.5375 19.9117 11.5375 19.9217 11.5275C19.9217 11.5275 19.9216 11.5275 19.9116 11.5375C19.9116 11.5375 19.9117 11.5375 19.9217 11.5375L19.9116 11.5475C19.9016 11.5575 19.8916 11.5675 19.8816 11.5775C19.8716 11.5875 19.8617 11.5875 19.8617 11.5975C19.8617 11.5975 19.8617 11.5975 19.8717 11.5875C19.8617 11.5975 19.8516 11.5975 19.8516 11.6075L19.8417 11.6175C19.8417 11.6175 19.8416 11.6175 19.8516 11.6075C19.8316 11.6175 19.8217 11.6375 19.8017 11.6475C19.8117 11.6375 19.8216 11.6375 19.8216 11.6275C19.8116 11.6375 19.8017 11.6475 19.7916 11.6575C19.7916 11.6575 19.7917 11.6575 19.8017 11.6475L19.7916 11.6575C19.7816 11.6675 19.7817 11.6675 19.7717 11.6775C19.7617 11.6875 19.7417 11.6975 19.7317 11.7175L19.7417 11.7075C19.7117 11.7275 19.6916 11.7575 19.6616 11.7775C19.6716 11.7675 19.6816 11.7575 19.6916 11.7475C19.6716 11.7675 19.6517 11.7875 19.6217 11.8075C19.6217 11.8075 19.6316 11.8075 19.6316 11.7975C19.6016 11.8275 19.5716 11.8475 19.5416 11.8775C19.5316 11.8875 19.5117 11.8975 19.5017 11.9075L19.4917 11.9175C19.4817 11.9275 19.4717 11.9375 19.4617 11.9475C19.4517 11.9575 19.4417 11.9675 19.4217 11.9775C19.3917 12.0075 19.3617 12.0275 19.3317 12.0575C19.3417 12.0575 19.3416 12.0475 19.3516 12.0475C19.3216 12.0775 19.2917 12.0975 19.2617 12.1275C19.2717 12.1175 19.2816 12.1075 19.2916 12.0975C19.2716 12.1075 19.2617 12.1275 19.2417 12.1375C19.2417 12.1375 19.2417 12.1375 19.2317 12.1475C19.2317 12.1475 19.2317 12.1475 19.2217 12.1575C19.2117 12.1575 19.2117 12.1675 19.2017 12.1675L19.1916 12.1775C19.1816 12.1875 19.1717 12.1975 19.1517 12.2075C19.1417 12.2175 19.1317 12.2275 19.1117 12.2375C19.1117 12.2375 19.1216 12.2275 19.1316 12.2275C19.1116 12.2475 19.1017 12.2575 19.0817 12.2775C19.0617 12.2975 19.0417 12.3175 19.0217 12.3375C19.0217 12.3375 19.0317 12.3375 19.0317 12.3275C18.9917 12.3575 18.9516 12.3975 18.9116 12.4275C18.9016 12.4375 18.8817 12.4575 18.8717 12.4675L18.8617 12.4775C18.8617 12.4775 18.8616 12.4775 18.8516 12.4775C18.8416 12.4875 18.8417 12.4875 18.8317 12.4975C18.8317 12.4975 18.8317 12.4975 18.8417 12.4875C18.8217 12.5075 18.7917 12.5275 18.7717 12.5475L18.7817 12.5375C18.7617 12.5575 18.7417 12.5775 18.7117 12.5975L18.7217 12.5875C18.7017 12.5975 18.6917 12.6175 18.6717 12.6275C18.6717 12.6275 18.6616 12.6275 18.6616 12.6375C18.6316 12.6675 18.6016 12.6875 18.5716 12.7175C18.5716 12.7175 18.5717 12.7175 18.5817 12.7075C18.5817 12.7075 18.5816 12.7075 18.5716 12.7075C18.5416 12.7275 18.5217 12.7575 18.4917 12.7775L18.4817 12.7875L18.4717 12.7975C18.4717 12.7975 18.4717 12.7975 18.4817 12.7875C18.4717 12.7975 18.4516 12.8075 18.4416 12.8175C18.4316 12.8275 18.4317 12.8275 18.4217 12.8375C18.4217 12.8375 18.4317 12.8375 18.4317 12.8275C18.4317 12.8275 18.4317 12.8275 18.4217 12.8375C18.4217 12.8375 18.4317 12.8375 18.4317 12.8275C18.4417 12.8175 18.4517 12.8175 18.4517 12.8075C18.4317 12.8175 18.4217 12.8375 18.4017 12.8475L18.3917 12.8575C18.1517 13.0775 17.9117 13.2875 17.6717 13.5075C17.4117 13.7375 17.1617 13.9675 16.9017 14.1975C16.9117 14.1875 16.9217 14.1875 16.9217 14.1775C16.8817 14.2075 16.8517 14.2375 16.8117 14.2775C16.5817 14.4975 16.3616 14.7175 16.1316 14.9475C15.9216 15.1575 15.7017 15.3675 15.4917 15.5775C15.3617 15.7075 15.2316 15.8475 15.1016 15.9775C14.8316 16.2575 14.5717 16.5275 14.3017 16.8075C14.2217 16.8975 14.1317 16.9775 14.0517 17.0675C14.1817 17.0475 14.3116 17.0275 14.4416 17.0175C14.6416 16.9875 14.8517 16.9675 15.0517 16.9375C15.3017 16.9075 15.5517 16.8675 15.7917 16.8375C15.8317 16.8075 15.8716 16.7775 15.9116 16.7475C16.3316 16.4375 16.7517 16.1275 17.1817 15.8175C18.0317 15.1875 18.8917 14.5675 19.7617 13.9575C20.0017 13.7875 20.2417 13.6275 20.4717 13.4575C20.6317 13.3375 20.8017 13.2375 20.9717 13.1275C21.1517 13.0075 21.3317 12.8975 21.5217 12.7875C21.6517 12.7175 21.7717 12.6475 21.9017 12.5775C21.9917 12.5275 22.0717 12.4675 22.1717 12.4275C22.2317 12.3975 22.3017 12.3775 22.3717 12.3675C22.4617 12.3575 22.5417 12.3675 22.6217 12.3875C22.8317 12.4175 22.9717 12.6275 22.9217 12.8375C22.8817 13.0075 22.8417 13.1775 22.7817 13.3375C22.7117 13.5175 22.6217 13.6975 22.5317 13.8675C22.4517 14.0175 22.3717 14.1675 22.2817 14.3175C22.1017 14.6275 21.9217 14.9375 21.7517 15.2475C21.6517 15.4275 21.5417 15.5975 21.4317 15.7675C21.2517 16.0575 21.0616 16.3575 20.8816 16.6475C20.8716 16.6675 20.8517 16.6875 20.8417 16.7075C20.8417 16.6975 20.8516 16.6975 20.8516 16.6875L20.8417 16.6975C20.5117 17.1875 20.1717 17.6775 19.8417 18.1675C19.8417 18.1775 19.8317 18.1775 19.8317 18.1875C19.8317 18.1875 19.8317 18.1775 19.8417 18.1775C19.7117 18.3775 19.5717 18.5675 19.4317 18.7675C19.2317 19.0575 19.0316 19.3475 18.8216 19.6375C18.5016 20.0875 18.1817 20.5375 17.8617 20.9975C17.8217 21.0575 17.7817 21.1075 17.7417 21.1675C17.7517 21.1575 17.7617 21.1375 17.7717 21.1275C17.6217 21.3475 17.4716 21.5675 17.3216 21.7875C17.1716 22.0075 17.0217 22.2275 16.8717 22.4475C16.6617 22.7775 16.4517 23.1175 16.2417 23.4475C16.1517 23.5975 16.0617 23.7575 15.9717 23.9075C15.8317 24.1575 15.6817 24.4075 15.5517 24.6575C15.5517 24.6475 15.5617 24.6375 15.5617 24.6275C15.5517 24.6375 15.5517 24.6475 15.5417 24.6575C15.5417 24.6575 15.5417 24.6575 15.5417 24.6675C15.5417 24.6675 15.5417 24.6675 15.5417 24.6575C15.5117 24.7175 15.4817 24.7775 15.4517 24.8475C15.4317 24.8875 15.4117 24.9275 15.4017 24.9675C15.4017 24.9775 15.3917 24.9875 15.3917 24.9975C15.3917 25.0175 15.3816 25.0375 15.3816 25.0575L15.3917 25.0675C15.4117 25.0775 15.4317 25.0875 15.4517 25.0975H15.4617C15.4917 25.0975 15.5117 25.1075 15.5417 25.1075C15.6617 25.1175 15.7917 25.1175 15.9217 25.1075C16.0017 25.1075 16.0717 25.1075 16.1517 25.1075C16.2617 25.1075 16.3617 25.1075 16.4717 25.1075C16.4817 25.1075 16.4917 25.1075 16.4917 25.1075C16.5917 25.0975 16.6917 25.1575 16.7117 25.2575C16.7417 25.3675 16.6716 25.4775 16.5716 25.5075C16.5616 25.5075 16.5417 25.5175 16.5317 25.5175C16.5417 25.5175 16.5517 25.5075 16.5617 25.5075C16.4117 25.5575 16.2617 25.6075 16.1117 25.6475C15.9717 25.6875 15.8417 25.7175 15.7017 25.7375C15.6217 25.7475 15.5417 25.7575 15.4617 25.7575C15.2617 25.7575 15.1616 25.7475 15.0716 25.7175ZM12.5716 18.6775C12.5016 18.7575 12.4317 18.8475 12.3617 18.9275C12.3117 18.9875 12.2517 19.0575 12.2017 19.1175C12.3617 19.0575 12.5116 18.9975 12.6616 18.9175C12.8516 18.8175 13.0417 18.7075 13.2217 18.5975C13.4317 18.4675 13.6416 18.3375 13.8516 18.1975C13.8416 18.2075 13.8217 18.2175 13.8117 18.2275C14.3017 17.8975 14.7717 17.5475 15.2517 17.2075C15.1917 17.2175 15.1317 17.2275 15.0617 17.2375C14.8917 17.2575 14.7217 17.2875 14.5417 17.3175C14.2717 17.3575 13.9917 17.3975 13.7217 17.4475C13.7017 17.4575 13.6717 17.4575 13.6517 17.4675C13.4217 17.7275 13.1917 17.9775 12.9517 18.2375C12.8317 18.3675 12.7016 18.5175 12.5716 18.6775Z" fill="#9B4EDA"/>
<path d="M11.5115 19.7876C11.5215 19.7876 11.5215 19.7976 11.5315 19.7976C11.5315 19.7976 11.5215 19.7976 11.5115 19.7876Z" fill="#9B4EDA"/>
<path d="M19.7515 18.2076C19.7515 18.2076 19.7414 18.2276 19.7314 18.2376C19.7414 18.2276 19.7415 18.2176 19.7515 18.2076Z" fill="#9B4EDA"/>
<path d="M19.7515 18.2076C19.7515 18.2176 19.7415 18.2176 19.7415 18.2176C19.7515 18.2176 19.7515 18.2076 19.7515 18.2076Z" fill="#9B4EDA"/>
<path d="M19.7715 18.1876L19.7615 18.1976C19.7615 18.1976 19.7615 18.1976 19.7715 18.1876Z" fill="#9B4EDA"/>
<path d="M20.1416 16.3575L20.1316 16.3675C20.1416 16.3675 20.1416 16.3575 20.1416 16.3575Z" fill="#9B4EDA"/>
<path d="M11.8315 15.2176L11.8215 15.2276C11.8315 15.2176 11.8315 15.2176 11.8315 15.2176Z" fill="#9B4EDA"/>
<path d="M12.0815 14.9976C12.0715 15.0076 12.0715 15.0076 12.0615 15.0176C12.0615 15.0176 12.0715 15.0076 12.0815 14.9976Z" fill="#9B4EDA"/>
<path d="M18.5815 12.6576L18.5715 12.6676C18.5715 12.6676 18.5815 12.6676 18.5815 12.6576Z" fill="#9B4EDA"/>
<path d="M18.5916 12.6476C18.6016 12.6376 18.6015 12.6376 18.6015 12.6376C18.5915 12.6476 18.5915 12.6476 18.5815 12.6576C18.5815 12.6576 18.5916 12.6576 18.5916 12.6476Z" fill="#9B4EDA"/>
<path d="M18.9714 12.3176L18.9614 12.3276C18.9614 12.3276 18.9614 12.3176 18.9714 12.3176Z" fill="#9B4EDA"/>
<path d="M19.0815 12.2176C19.0715 12.2276 19.0715 12.2276 19.0615 12.2376C19.0715 12.2376 19.0715 12.2276 19.0815 12.2176Z" fill="#9B4EDA"/>
<path d="M19.1616 12.1476L19.1716 12.1376C19.1716 12.1476 19.1616 12.1476 19.1616 12.1476Z" fill="#9B4EDA"/>
<path d="M19.5615 11.7976L19.5515 11.8076C19.5515 11.8076 19.5515 11.8076 19.5615 11.7976Z" fill="#9B4EDA"/>
<path d="M19.6616 11.7076L19.6516 11.7176C19.6516 11.7176 19.6516 11.7176 19.6616 11.7076Z" fill="#9B4EDA"/>
<path d="M19.7016 11.6776C19.7016 11.6776 19.6916 11.6876 19.6816 11.6976C19.6816 11.6876 19.6916 11.6876 19.7016 11.6776Z" fill="#9B4EDA"/>
<path d="M19.8015 11.5876C19.7915 11.5976 19.7915 11.5976 19.7915 11.5976L19.8015 11.5876Z" fill="#9B4EDA"/>
<path d="M21.2515 10.3376C21.2515 10.3276 21.2615 10.3276 21.2515 10.3376V10.3376Z" fill="#9B4EDA"/>
<path d="M14.2316 18.6276C14.2216 18.5476 14.2116 18.4576 14.2016 18.3776C14.1816 18.2676 14.1616 18.1576 14.1416 18.0476C14.1416 18.0476 14.1416 18.0476 14.1416 18.0576V18.0476C14.1416 18.0476 14.1416 18.0476 14.1416 18.0376C14.1216 17.9676 14.1116 17.9076 14.0816 17.8476C14.0716 17.8276 14.0616 17.7976 14.0516 17.7776C14.0516 17.7876 14.0616 17.7876 14.0616 17.7976C14.0516 17.7776 14.0416 17.7576 14.0316 17.7476C14.0216 17.7376 14.0116 17.7176 14.0016 17.7076C13.9916 17.6976 13.9816 17.6876 13.9716 17.6776C13.9616 17.6676 13.9516 17.6676 13.9416 17.6576L13.9516 17.6676C13.9416 17.6576 13.9316 17.6576 13.9216 17.6476C13.9116 17.6476 13.9016 17.6476 13.8916 17.6476C13.8716 17.6476 13.8616 17.6476 13.8416 17.6476C13.8116 17.6476 13.7816 17.6576 13.7616 17.6576C13.7316 17.6676 13.7116 17.6676 13.6816 17.6776C13.4916 17.7176 13.3016 17.7676 13.1116 17.8176C13.0516 17.8376 12.9816 17.8476 12.9116 17.8376C12.7916 17.8176 12.6816 17.7376 12.6316 17.6276C12.5816 17.5076 12.6016 17.3776 12.6816 17.2676C12.7316 17.1976 12.8116 17.1376 12.8816 17.0776C12.9316 17.0276 12.9816 16.9876 13.0316 16.9376C13.1416 16.8376 13.2616 16.7276 13.3716 16.6276C13.3616 16.6376 13.3516 16.6476 13.3416 16.6576C13.4416 16.5676 13.5416 16.4776 13.6416 16.3976C13.6316 16.4076 13.6216 16.4176 13.6116 16.4276C13.7516 16.2976 13.9016 16.1776 14.0416 16.0576C14.1916 15.9276 14.3416 15.8076 14.4916 15.6776C14.7416 15.4676 14.9916 15.2476 15.2316 15.0376C15.2216 15.0476 15.2116 15.0476 15.2116 15.0576C15.3316 14.9476 15.4516 14.8376 15.5716 14.7276C15.6916 14.6176 15.8116 14.5076 15.9316 14.3976L15.9216 14.4076C16.0716 14.2676 16.2216 14.1176 16.3716 13.9776C16.3716 13.9776 16.3716 13.9776 16.3616 13.9776C16.2016 14.0976 16.0416 14.2176 15.8916 14.3376C15.4616 14.6876 15.0216 15.0476 14.5916 15.4076C14.2716 15.6676 13.9616 15.9376 13.6416 16.1976C13.4716 16.3376 13.3116 16.4776 13.1416 16.6076C12.9216 16.7876 12.7016 16.9576 12.4716 17.1176C12.3516 17.1976 12.2316 17.2876 12.1116 17.3576C12.0516 17.3976 11.9816 17.4276 11.9216 17.4576C11.8616 17.4876 11.8016 17.4976 11.7516 17.5076C11.5916 17.5476 11.4316 17.4776 11.3416 17.3476C11.2616 17.2076 11.2816 17.0276 11.4016 16.9076C11.4816 16.8276 11.5616 16.7476 11.6516 16.6776C11.7016 16.6376 11.7516 16.5876 11.8016 16.5476C11.9316 16.4376 12.0516 16.3276 12.1816 16.2176C12.1816 16.2176 12.1716 16.2176 12.1716 16.2276C12.2016 16.1976 12.2316 16.1676 12.2716 16.1376C12.2616 16.1476 12.2516 16.1576 12.2416 16.1676C12.2716 16.1376 12.3016 16.1176 12.3316 16.0876C12.3416 16.0776 12.3516 16.0676 12.3616 16.0576C12.4516 15.9776 12.5316 15.9076 12.6216 15.8276C12.6316 15.8176 12.6416 15.8076 12.6516 15.7976L12.6416 15.8076C12.6716 15.7776 12.7016 15.7576 12.7316 15.7276C12.6016 15.8076 12.4716 15.8776 12.3416 15.9476C12.2416 16.0076 12.1316 16.0576 12.0216 16.1076C11.9716 16.1376 11.9116 16.1576 11.8616 16.1776C11.7916 16.2076 11.7116 16.2176 11.6416 16.2276C11.5016 16.2476 11.3516 16.1776 11.2816 16.0476C11.2016 15.9076 11.2216 15.7176 11.3416 15.6076C11.5016 15.4576 11.6816 15.3376 11.8616 15.2076C11.9616 15.1376 12.0616 15.0576 12.1616 14.9876C12.3916 14.8176 12.6116 14.6576 12.8416 14.4876C12.9416 14.4076 13.0516 14.3376 13.1516 14.2576C13.1516 14.3776 13.1616 14.5076 13.1716 14.6276C13.1716 14.6176 13.1816 14.6176 13.1816 14.6076C13.3516 14.3176 13.5616 14.0376 13.7816 13.7776C13.8716 13.7076 13.9616 13.6376 14.0616 13.5676C14.2616 13.4176 14.4616 13.2676 14.6716 13.1276C14.5916 13.1476 14.5116 13.1576 14.4316 13.1676C14.4116 13.1676 14.3816 13.1776 14.3616 13.1776C14.4416 13.1076 14.5216 13.0276 14.6016 12.9576C14.9316 12.6576 15.2616 12.3576 15.6016 12.0676C15.6216 12.0676 15.6516 12.0676 15.6716 12.0676C16.0016 11.9376 16.3216 11.7876 16.6416 11.6376C16.9116 11.5076 17.1816 11.3776 17.4516 11.2476C17.5616 11.1876 17.6616 11.1176 17.7816 11.0876C17.9516 11.0376 18.1416 11.1276 18.2116 11.2976C18.2816 11.4576 18.2216 11.6676 18.0616 11.7476C17.9716 11.7976 17.8816 11.8476 17.7816 11.8876C17.7016 11.9376 17.6216 11.9876 17.5316 12.0376C17.5216 12.0476 17.5016 12.0576 17.4916 12.0676C17.5016 12.0776 17.5116 12.0876 17.5216 12.0976C17.5516 12.1276 17.5616 12.1676 17.5816 12.2076C17.6816 12.1476 17.7916 12.0776 17.8916 12.0176C18.0716 11.9076 18.2616 11.8076 18.4316 11.6976C18.5016 11.6476 18.5716 11.6076 18.6616 11.5976C18.7616 11.5776 18.8616 11.5976 18.9516 11.6476C19.1316 11.7576 19.1816 12.0076 19.0516 12.1776C18.8616 12.4276 18.6516 12.6576 18.4416 12.8776C18.2516 13.0876 18.0516 13.2876 17.8516 13.4876C17.4916 13.8576 17.1116 14.2176 16.7416 14.5676C16.6416 14.6676 16.5316 14.7676 16.4316 14.8676C16.4316 14.8676 16.4316 14.8676 16.4416 14.8676C16.0416 15.2376 15.6316 15.6076 15.2216 15.9576C14.8616 16.2676 14.4916 16.5776 14.1216 16.8976C14.1216 16.8976 14.1216 16.8976 14.1316 16.8876C14.1316 16.8876 14.1316 16.8876 14.1216 16.8976L14.1116 16.9076C14.0316 16.9776 13.9516 17.0476 13.8716 17.1176C13.9516 17.1376 14.0316 17.1676 14.1116 17.2076C14.2216 17.2676 14.2916 17.3876 14.3416 17.4976C14.4016 17.6276 14.4116 17.7876 14.4116 17.9276C14.4116 18.0476 14.4016 18.1676 14.3916 18.2876C14.3916 18.3476 14.3816 18.4176 14.3716 18.4776C14.3716 18.5176 14.3616 18.5476 14.3616 18.5876C14.3616 18.6176 14.3316 18.6376 14.3016 18.6376C14.2616 18.6776 14.2416 18.6576 14.2316 18.6276Z" fill="#9B4EDA"/>
<path d="M12.6716 15.7976C12.6616 15.8076 12.6516 15.8076 12.6516 15.8176C12.6516 15.8176 12.6616 15.8076 12.6716 15.7976Z" fill="#9B4EDA"/>
<path d="M13.3615 13.1676C12.9115 12.9076 13.2215 12.4376 13.6415 12.3976C13.5415 12.6576 13.4415 12.9176 13.3615 13.1676Z" fill="#9B4EDA"/>
<path d="M3.88153 40.8576C3.82153 40.0676 3.80155 39.2776 3.87155 38.4876C3.88155 38.4776 3.89155 38.4576 3.90155 38.4476C3.99155 38.3076 4.08153 38.1676 4.17153 38.0276C4.19153 37.9776 4.20155 37.9275 4.22155 37.8675C4.25155 37.7775 4.28155 37.6876 4.31155 37.6076C4.35155 37.5076 4.38153 37.4076 4.42153 37.3076C4.44153 37.2076 4.47154 37.1176 4.49154 37.0176C4.55154 36.7876 4.62152 36.5576 4.69152 36.3176C4.72152 36.2176 4.75155 36.1176 4.78155 36.0176C4.80155 35.9476 4.82155 35.8876 4.84155 35.8176C4.88155 35.6976 4.91154 35.5775 4.99154 35.4775C5.09154 35.3475 5.26152 35.2975 5.41152 35.3675C5.49152 35.3975 5.55155 35.4576 5.59155 35.5276C5.71155 35.3076 5.83154 35.0776 5.96154 34.8576C6.19154 34.4476 6.43152 34.0375 6.66152 33.6175C6.76152 33.4375 6.87153 33.2676 6.98153 33.0976C7.05153 32.9876 7.12152 32.8776 7.19152 32.7676C7.25152 32.6676 7.32154 32.5676 7.39154 32.4676C7.49154 32.3276 7.59154 32.1976 7.71154 32.0776C7.77154 32.0076 7.85153 31.9576 7.95153 31.9376C8.06153 31.9276 8.17155 31.9675 8.25155 32.0375C8.26155 32.0475 8.26154 32.0476 8.27154 32.0576C8.26154 32.0476 8.25154 32.0376 8.24154 32.0276C8.30154 32.0776 8.35153 32.1276 8.38153 32.1876C8.43153 32.2776 8.44152 32.3676 8.44152 32.4676C8.43152 32.6576 8.35153 32.8275 8.29153 33.0075C8.30153 32.9975 8.30155 32.9776 8.31155 32.9676C8.07155 33.7176 7.78153 34.4376 7.51153 35.1776C7.43153 35.4076 7.34155 35.6376 7.25155 35.8576C7.16155 36.0876 7.08154 36.3175 6.99154 36.5375C6.88154 36.8175 6.77152 37.0976 6.66152 37.3776C6.57152 37.5876 6.50152 37.8076 6.41152 38.0176C6.19152 38.5276 5.97155 39.0275 5.75155 39.5375C5.72155 39.6075 5.68155 39.6875 5.65155 39.7575C5.57155 39.9275 5.49152 40.0875 5.41152 40.2575C5.34152 40.4075 5.27152 40.5676 5.19152 40.7176C5.16152 40.7876 5.12155 40.8676 5.09155 40.9376C5.10155 40.9276 5.10154 40.9075 5.11154 40.8975C4.98154 41.1575 4.84154 41.4276 4.71154 41.6876C4.66154 41.7776 4.62154 41.8576 4.58154 41.9476C4.53154 42.0476 4.47153 42.1376 4.42153 42.2376C4.35153 42.3576 4.29155 42.4676 4.22155 42.5876C4.19155 42.6376 4.16153 42.6876 4.13153 42.7376C4.01153 42.1176 3.94153 41.4876 3.88153 40.8576ZM5.09155 38.4176C4.95155 38.9076 4.82153 39.3976 4.67153 39.8876C4.61153 40.0976 4.55154 40.2975 4.49154 40.5075C4.59154 40.2975 4.69153 40.0876 4.79153 39.8776C4.89153 39.6676 4.99155 39.4576 5.09155 39.2476C5.21155 38.9676 5.33153 38.6976 5.45153 38.4176C5.55153 38.1876 5.65155 37.9575 5.75155 37.7275C5.85155 37.4775 5.95154 37.2176 6.05154 36.9676C6.12154 36.7976 6.18155 36.6276 6.25155 36.4676C6.28155 36.3976 6.31155 36.3276 6.34155 36.2476C6.51155 35.7776 6.70155 35.3176 6.87155 34.8476C6.91155 34.7476 6.94153 34.6576 6.98153 34.5576C6.89153 34.7176 6.79153 34.8776 6.70153 35.0476C6.56153 35.2976 6.42155 35.5576 6.28155 35.8076C6.17155 36.0076 6.06153 36.2076 5.95153 36.4076C5.80153 36.6776 5.64154 36.9476 5.49154 37.2176C5.46154 37.2676 5.43155 37.3276 5.40155 37.3776C5.28155 37.7276 5.19155 38.0776 5.09155 38.4176Z" fill="#9B4EDA"/>
<path d="M2.36153 40.3576C2.21153 40.2676 2.10152 40.1076 2.07152 39.9276C2.06152 39.8376 2.07153 39.7576 2.08153 39.6676C2.10153 39.5776 2.11154 39.4976 2.12154 39.4076C2.14154 39.3276 2.15153 39.2476 2.17153 39.1676C2.20153 39.0176 2.23153 38.8576 2.26153 38.7076C2.38153 38.1676 2.49153 37.6376 2.61153 37.0976C2.64153 36.9576 2.67153 36.8176 2.70153 36.6676C2.73153 36.5176 2.76152 36.3776 2.79152 36.2276C2.83152 35.9476 2.88154 35.6576 2.93154 35.3776C2.97154 35.1176 3.00154 34.8576 3.03154 34.5976C3.06154 34.3576 3.09153 34.1176 3.11153 33.8776C3.16153 33.4076 3.21153 32.9476 3.30153 32.4776C3.36153 32.1576 3.42152 31.8376 3.54152 31.5376C3.60152 31.3976 3.66154 31.2676 3.74154 31.1376C3.78154 31.0776 3.83152 31.0176 3.88152 30.9576C3.93152 30.9076 3.99153 30.8676 4.05153 30.8276C4.16153 30.7576 4.29153 30.7176 4.42153 30.6976C4.57153 30.6876 4.72154 30.6976 4.87154 30.7076C4.98154 30.7176 5.09152 30.7276 5.19152 30.7276C5.41152 30.7376 5.63153 30.7376 5.86153 30.7276C5.85153 30.7276 5.85154 30.7276 5.84154 30.7276C6.01154 30.7176 6.19153 30.6976 6.36153 30.6576C6.37153 30.6576 6.37152 30.6576 6.38152 30.6576C6.52152 30.6276 6.66153 30.5876 6.80153 30.5376H6.79152C6.93152 30.4876 7.07153 30.4276 7.20153 30.3676C7.20153 30.3676 7.19152 30.3676 7.19152 30.3776C7.43152 30.2576 7.66152 30.1176 7.88152 29.9676C7.88152 29.9676 7.88154 29.9676 7.87154 29.9776C8.15154 29.7876 8.42153 29.5676 8.67153 29.3476C8.67153 29.3476 8.67152 29.3476 8.66152 29.3576C8.79152 29.2376 8.92152 29.1176 9.04152 28.9876C9.20152 28.8276 9.36154 28.6776 9.52153 28.5176C9.58153 28.4476 9.69154 28.5476 9.62154 28.6176C9.38154 28.8576 9.14154 29.0876 8.90154 29.3276C8.54154 29.6776 8.15154 29.9876 7.74154 30.2776C7.49154 30.4476 7.23154 30.6076 6.96154 30.7476C6.66154 30.8976 6.35154 30.9876 6.02154 31.0476C5.59154 31.1276 5.16153 31.1376 4.73153 31.1576C4.72153 31.1576 4.72154 31.1576 4.71154 31.1576H4.72155C4.66155 31.1676 4.59154 31.1676 4.53154 31.1876C4.54154 31.1876 4.55154 31.1876 4.56154 31.1776C4.53154 31.1876 4.50155 31.1876 4.47155 31.1976C4.46155 31.1976 4.46153 31.2076 4.45153 31.2076C4.43153 31.2176 4.42152 31.2276 4.41152 31.2376C4.39152 31.2576 4.37152 31.2676 4.35152 31.2876C4.34152 31.2976 4.32154 31.3076 4.31154 31.3276C4.29154 31.3476 4.28153 31.3676 4.26153 31.3876C4.24153 31.4176 4.23154 31.4476 4.21154 31.4776C4.18154 31.5476 4.15154 31.6276 4.12154 31.6976C4.12154 31.6976 4.12154 31.6976 4.12154 31.6876C4.08154 31.8176 4.04153 31.9476 4.01153 32.0776C3.90153 32.6176 3.85153 33.1676 3.80153 33.7176C3.78153 33.9776 3.76153 34.2376 3.73153 34.5076C3.70153 34.8076 3.66152 35.1076 3.63152 35.4076C3.62152 35.5076 3.60153 35.6176 3.58153 35.7176C3.55153 35.8876 3.53155 36.0676 3.50155 36.2376C3.49155 36.2676 3.49153 36.3076 3.48153 36.3376V36.3276C3.35153 37.0376 3.20153 37.7576 3.05153 38.4676C2.98153 38.6476 2.92153 38.8276 2.86153 39.0076C2.66153 39.4776 2.51153 39.9076 2.39153 40.3576C2.37153 40.3676 2.37153 40.3576 2.36153 40.3576Z" fill="#9B4EDA"/>
<path d="M4.53165 42.2676C4.36165 42.1376 4.38163 41.8976 4.38163 41.7076C4.38163 41.4876 4.38165 41.2676 4.37165 41.0476C4.36165 39.7576 4.40165 38.4676 4.46165 37.1776C4.58165 36.7076 4.68164 36.2476 4.61164 35.7676C4.63164 35.4676 4.46164 35.0476 4.77164 34.8476C5.17164 34.6476 5.36165 35.0676 5.37165 35.4076C5.46165 37.0076 5.51164 38.4376 5.74164 40.0476C5.79164 40.6576 5.87164 41.2776 5.83164 41.8976C5.81164 42.0676 5.65163 42.2076 5.48163 42.2076C5.29163 42.2076 5.13165 42.0476 5.12165 41.8676C5.15165 42.1876 4.83165 42.4876 4.53165 42.2676Z" fill="#9B4EDA"/>
<path d="M59.2914 14.6776C59.0714 14.5876 58.8614 14.4176 58.7314 14.2076C58.6314 14.0976 58.5214 13.9876 58.4214 13.8776C58.2214 13.6576 58.0015 13.4376 57.7815 13.2376C57.5915 13.0776 57.4114 12.9176 57.3214 12.8476C57.0614 12.6176 56.7814 12.4175 56.4914 12.2175C56.0914 11.9375 55.7114 11.6375 55.4914 11.4475C55.3714 11.3475 55.2414 11.2476 55.1114 11.1576C54.7914 10.9576 54.4514 10.7776 54.1114 10.5976C53.7514 10.4076 53.4014 10.2075 53.0414 10.0275C52.6114 9.83755 52.1715 9.66754 51.7215 9.50754C51.2515 9.33754 50.7815 9.16755 50.3115 9.01755C49.3415 8.71755 48.3314 8.52755 47.3314 8.34755C46.7814 8.25755 46.2214 8.20755 45.6714 8.13755C45.1414 8.06755 44.6215 7.97755 44.0915 7.91755C42.9115 7.77755 41.7214 7.67754 40.6314 7.61754C40.1314 7.59754 39.6314 7.57755 39.1314 7.55755C38.7614 7.54755 38.3914 7.53755 38.0414 7.55755C37.7614 7.57755 37.4814 7.61755 37.2114 7.66755C37.1114 7.68755 37.0114 7.71755 36.9114 7.73755C36.9114 7.73755 36.9014 7.73754 36.9114 7.72754C37.0614 7.66754 37.2015 7.59755 37.3415 7.52755C37.3615 7.51755 37.3714 7.50754 37.3814 7.50754C37.6614 7.36754 37.9414 7.21755 38.2314 7.07755C38.5114 6.93755 38.7814 6.77755 39.0714 6.63755C39.8914 6.23755 40.7714 5.94755 41.6514 5.71755C42.6314 5.46755 43.6214 5.33754 44.6314 5.28754C45.0314 5.26754 45.4314 5.24754 45.8314 5.25754C46.3314 5.26754 46.8314 5.32755 47.3314 5.40755C47.7914 5.47755 48.2414 5.52754 48.6914 5.61754C49.1414 5.70754 49.5914 5.82755 50.0414 5.93755C50.9314 6.16755 51.8214 6.40755 52.6814 6.73755C53.0614 6.88755 53.4214 7.05754 53.7914 7.22754C54.2114 7.42754 54.6415 7.60756 55.0615 7.81756C55.7715 8.17756 56.4014 8.65754 57.1014 9.03754C57.9914 9.53754 58.7114 10.2875 59.3714 11.0575C59.7214 11.4675 60.0314 11.9075 60.3214 12.3575C60.3214 12.3675 60.3314 12.3676 60.3314 12.3776L60.3514 12.4076C60.4514 12.5676 60.5414 12.7175 60.5714 12.7775C60.5914 12.8175 60.6114 12.8575 60.6314 12.8975C60.7514 13.0575 60.8314 13.2476 60.8514 13.4376C60.9114 13.8476 60.7414 14.2576 60.4114 14.5176C60.2114 14.6776 59.9614 14.7575 59.7014 14.7575C59.5714 14.7575 59.4314 14.7376 59.2914 14.6776Z" fill="#F2E6F4"/>
<path d="M63.6817 28.7876C62.9817 28.3976 62.7817 27.4476 63.2617 26.8076C63.3617 26.6276 63.4517 26.4376 63.5017 26.3276C63.7117 25.8776 63.9117 25.4276 64.0617 24.9576C64.2417 24.3676 64.3717 23.7676 64.4817 23.1576C64.5717 22.6076 64.6317 22.0576 64.6717 21.4976C64.7017 20.7876 64.6717 20.0676 64.6217 19.3976C64.6017 19.1176 64.5517 18.8276 64.5117 18.5776C64.4517 18.2976 64.3817 18.0076 64.2817 17.7476C64.2317 17.5976 64.1617 17.4476 64.1017 17.3076C64.0417 17.1876 63.9717 17.0576 63.9017 16.9476C63.8517 16.8776 63.8017 16.7976 63.7417 16.7376C63.7117 16.7076 63.6917 16.6776 63.6617 16.6476C64.0617 17.0176 64.4617 17.3976 64.8217 17.8076C65.0817 18.0976 65.3117 18.4076 65.5217 18.7376C65.7417 19.0676 65.9417 19.4076 66.1117 19.7676C66.3617 20.3176 66.5317 20.9176 66.6617 21.5076C66.8017 22.1476 66.8717 22.7976 66.8817 23.4476C66.9017 24.4776 66.7117 25.5176 66.3917 26.4976C66.2817 26.8476 66.1317 27.1876 65.9617 27.5176C65.8317 27.7576 65.6817 27.9876 65.5317 28.2176C65.5217 28.2376 65.5117 28.2576 65.5017 28.2676C65.2517 28.6976 64.7917 28.9476 64.3217 28.9476C64.1117 28.9576 63.8917 28.9076 63.6817 28.7876Z" fill="#F2E6F4"/>
<path d="M110.712 33.2975L106.542 34.1975L105.652 38.3675L104.752 34.1975L100.582 33.2975L104.752 32.3975L105.652 28.2275L106.542 32.3975L110.712 33.2975Z" fill="#9B4EDA"/>
<path d="M102.151 37.8276L99.6315 38.3676L99.0915 40.8876L98.5515 38.3676L96.0315 37.8276L98.5515 37.2876L99.0915 34.7676L99.6315 37.2876L102.151 37.8276Z" fill="#9B4EDA"/>
<path d="M104.842 40.7275C104.862 40.8875 104.812 41.0575 104.712 41.1975C104.622 41.3175 104.492 41.3976 104.352 41.4276C104.312 41.4376 104.272 41.4376 104.222 41.4376C104.102 41.4376 103.992 41.4075 103.892 41.3375C103.782 41.2675 103.712 41.1676 103.672 41.0476C103.552 40.8376 103.582 40.5476 103.762 40.3776C103.772 40.3276 103.792 40.2876 103.832 40.2676C103.932 40.1976 104.052 40.1575 104.172 40.1475C104.282 40.1375 104.392 40.1676 104.492 40.2176C104.582 40.2576 104.662 40.3276 104.722 40.4076C104.782 40.5076 104.822 40.6175 104.842 40.7275Z" fill="#9B4EDA"/>
</svg>
