<svg xmlns="http://www.w3.org/2000/svg" xmlns:xlink="http://www.w3.org/1999/xlink" width="34" zoomAndPan="magnify" viewBox="0 0 25.5 22.5" height="30" preserveAspectRatio="xMidYMid meet" version="1.0"><defs><clipPath id="a009aa9cd9"><path d="M 0.046875 0 L 24.960938 0 L 24.960938 21.277344 L 0.046875 21.277344 Z M 0.046875 0 " clip-rule="nonzero"/></clipPath><clipPath id="6478c01e30"><path d="M 21.257812 12.066406 L 24.960938 12.066406 L 24.960938 20.085938 L 21.257812 20.085938 Z M 21.257812 12.066406 " clip-rule="nonzero"/></clipPath><clipPath id="35eb5921cc"><path d="M 10 11 L 20 11 L 20 21.277344 L 10 21.277344 Z M 10 11 " clip-rule="nonzero"/></clipPath><clipPath id="ccd80d83f4"><path d="M 3.589844 12.03125 L 24.960938 12.03125 L 24.960938 21.277344 L 3.589844 21.277344 Z M 3.589844 12.03125 " clip-rule="nonzero"/></clipPath><clipPath id="d20b4f635e"><path d="M 0.03125 2 L 3 2 L 3 14 L 0.03125 14 Z M 0.03125 2 " clip-rule="nonzero"/></clipPath><clipPath id="8c894712aa"><path d="M 0.03125 2 L 13 2 L 13 19 L 0.03125 19 Z M 0.03125 2 " clip-rule="nonzero"/></clipPath></defs><g clip-path="url(#a009aa9cd9)"><path fill="#474b51" d="M 9.402344 0 C 8.546875 0.179688 2.476562 1.78125 2.105469 2.179688 C 1.734375 2.582031 0.132812 5.632812 0.0585938 5.777344 C -0.015625 5.921875 0.320312 9.15625 0.355469 9.304688 C 0.394531 9.449219 3.59375 17.917969 3.742188 18.097656 C 3.890625 18.28125 5.007812 19.261719 5.046875 19.441406 C 5.082031 19.625 11.261719 21.261719 11.261719 21.261719 C 11.261719 21.261719 16.136719 21.296875 16.25 21.261719 C 16.363281 21.222656 21.277344 20.0625 21.277344 20.0625 C 21.277344 20.0625 25.035156 12.246094 24.960938 12.066406 C 24.886719 11.882812 21.199219 5.269531 20.976562 5.160156 C 20.753906 5.050781 15.058594 0.980469 14.910156 0.871094 C 14.761719 0.761719 9.402344 0 9.402344 0 " fill-opacity="1" fill-rule="nonzero"/></g><g clip-path="url(#6478c01e30)"><path fill="#7c7d7d" d="M 21.277344 20.0625 C 21.277344 20.058594 21.277344 20.058594 21.277344 20.058594 C 21.277344 20.058594 21.277344 20.058594 21.277344 20.0625 M 21.277344 20.054688 L 21.277344 20.054688 M 21.277344 20.054688 C 21.398438 19.804688 24.945312 12.429688 24.960938 12.074219 C 24.945312 12.429688 21.398438 19.804688 21.277344 20.054688 " fill-opacity="1" fill-rule="nonzero"/></g><g clip-path="url(#35eb5921cc)"><path fill="#292c2f" d="M 16.324219 21.035156 C 15.914062 21.035156 10.722656 18.578125 10.554688 18.578125 C 10.535156 18.578125 10.417969 18.566406 10.230469 18.546875 C 10.945312 17.066406 11.554688 15.8125 11.558594 15.800781 L 10.609375 13.347656 C 10.613281 13.347656 10.617188 13.351562 10.621094 13.351562 C 10.707031 13.351562 11.222656 12.839844 11.734375 12.328125 C 11.773438 12.289062 11.8125 12.25 11.851562 12.214844 L 12.84375 11.300781 C 12.859375 11.304688 12.90625 11.308594 12.96875 11.308594 C 13.117188 11.308594 13.371094 11.300781 13.65625 11.292969 C 13.941406 11.285156 14.257812 11.28125 14.527344 11.28125 C 14.882812 11.28125 15.160156 11.292969 15.191406 11.328125 C 15.273438 11.4375 19.542969 14.980469 19.542969 14.980469 L 19.070312 18.660156 C 19.070312 18.660156 16.640625 20.980469 16.335938 21.035156 C 16.332031 21.035156 16.328125 21.035156 16.324219 21.035156 " fill-opacity="1" fill-rule="nonzero"/></g><g clip-path="url(#ccd80d83f4)"><path fill="#101213" d="M 19.070312 18.660156 C 19.070312 18.660156 16.640625 20.980469 16.335938 21.035156 C 16.027344 21.085938 10.722656 18.578125 10.554688 18.578125 C 10.410156 18.578125 5.0625 17.933594 3.589844 17.753906 C 3.671875 17.957031 3.726562 18.078125 3.742188 18.097656 C 3.890625 18.28125 5.007812 19.261719 5.046875 19.441406 C 5.082031 19.625 11.261719 21.261719 11.261719 21.261719 C 11.261719 21.261719 16.136719 21.296875 16.25 21.261719 C 16.363281 21.222656 21.277344 20.0625 21.277344 20.0625 C 21.277344 20.0625 25.035156 12.246094 24.960938 12.066406 L 19.542969 14.980469 L 19.070312 18.660156 " fill-opacity="1" fill-rule="nonzero"/></g><path fill="#8e8f90" d="M 5.992188 19.792969 L 5.992188 19.792969 M 5.992188 19.789062 C 5.433594 19.621094 5.0625 19.488281 5.046875 19.445312 C 5.046875 19.445312 5.046875 19.449219 5.050781 19.449219 C 5.050781 19.449219 5.050781 19.453125 5.050781 19.453125 C 5.050781 19.453125 5.050781 19.453125 5.054688 19.453125 C 5.054688 19.457031 5.054688 19.457031 5.054688 19.457031 C 5.054688 19.457031 5.058594 19.457031 5.058594 19.457031 C 5.058594 19.460938 5.058594 19.460938 5.058594 19.460938 C 5.058594 19.460938 5.058594 19.460938 5.0625 19.460938 C 5.0625 19.460938 5.0625 19.460938 5.066406 19.460938 C 5.066406 19.464844 5.066406 19.464844 5.066406 19.464844 C 5.070312 19.464844 5.070312 19.464844 5.070312 19.464844 C 5.070312 19.464844 5.070312 19.46875 5.070312 19.46875 C 5.074219 19.46875 5.074219 19.46875 5.074219 19.46875 C 5.074219 19.46875 5.074219 19.46875 5.078125 19.46875 C 5.078125 19.46875 5.078125 19.472656 5.078125 19.472656 C 5.078125 19.472656 5.078125 19.472656 5.082031 19.472656 C 5.191406 19.535156 5.527344 19.648438 5.992188 19.789062 " fill-opacity="1" fill-rule="nonzero"/><path fill="#2d3034" d="M 6.867188 20.050781 C 6.546875 19.957031 6.25 19.871094 5.992188 19.792969 C 5.992188 19.792969 5.992188 19.792969 5.992188 19.789062 C 5.527344 19.648438 5.191406 19.535156 5.082031 19.472656 C 5.183594 19.53125 5.484375 19.632812 5.894531 19.761719 C 6.175781 19.847656 6.507812 19.945312 6.867188 20.050781 M 5.082031 19.472656 L 5.082031 19.472656 M 5.082031 19.472656 L 5.082031 19.472656 M 5.082031 19.472656 L 5.082031 19.472656 M 5.082031 19.472656 L 5.082031 19.472656 M 5.082031 19.472656 C 5.078125 19.472656 5.078125 19.472656 5.078125 19.472656 C 5.078125 19.472656 5.078125 19.472656 5.082031 19.472656 M 5.078125 19.472656 L 5.078125 19.472656 M 5.078125 19.472656 L 5.078125 19.472656 M 5.078125 19.472656 L 5.078125 19.472656 M 5.078125 19.46875 L 5.078125 19.46875 M 5.078125 19.46875 L 5.078125 19.46875 M 5.078125 19.46875 L 5.078125 19.46875 M 5.074219 19.46875 L 5.074219 19.46875 M 5.074219 19.46875 L 5.074219 19.46875 M 5.074219 19.46875 L 5.074219 19.46875 M 5.074219 19.46875 L 5.074219 19.46875 M 5.074219 19.46875 L 5.074219 19.46875 M 5.074219 19.46875 L 5.074219 19.46875 M 5.074219 19.46875 L 5.074219 19.46875 M 5.074219 19.46875 L 5.074219 19.46875 M 5.074219 19.46875 L 5.074219 19.46875 M 5.070312 19.46875 L 5.070312 19.46875 M 5.070312 19.46875 L 5.070312 19.46875 M 5.070312 19.46875 L 5.070312 19.46875 M 5.070312 19.46875 C 5.070312 19.46875 5.070312 19.464844 5.070312 19.464844 C 5.070312 19.464844 5.070312 19.46875 5.070312 19.46875 M 5.070312 19.464844 L 5.070312 19.464844 M 5.070312 19.464844 L 5.070312 19.464844 M 5.070312 19.464844 L 5.070312 19.464844 M 5.070312 19.464844 L 5.070312 19.464844 M 5.070312 19.464844 C 5.070312 19.464844 5.070312 19.464844 5.066406 19.464844 C 5.070312 19.464844 5.070312 19.464844 5.070312 19.464844 M 5.066406 19.464844 L 5.066406 19.464844 M 5.066406 19.464844 L 5.066406 19.464844 M 5.066406 19.464844 L 5.066406 19.464844 M 5.066406 19.464844 L 5.066406 19.464844 M 5.066406 19.464844 L 5.066406 19.464844 M 5.066406 19.464844 L 5.066406 19.464844 M 5.066406 19.464844 L 5.066406 19.464844 M 5.066406 19.464844 L 5.066406 19.464844 M 5.066406 19.464844 C 5.066406 19.464844 5.066406 19.464844 5.066406 19.460938 C 5.066406 19.460938 5.066406 19.464844 5.066406 19.464844 M 5.0625 19.460938 L 5.0625 19.460938 M 5.0625 19.460938 L 5.0625 19.460938 M 5.0625 19.460938 L 5.0625 19.460938 M 5.0625 19.460938 L 5.0625 19.460938 M 5.0625 19.460938 L 5.0625 19.460938 M 5.0625 19.460938 L 5.0625 19.460938 M 5.0625 19.460938 L 5.0625 19.460938 M 5.058594 19.460938 L 5.058594 19.460938 M 5.058594 19.460938 L 5.058594 19.460938 M 5.058594 19.460938 L 5.058594 19.460938 M 5.058594 19.457031 L 5.058594 19.457031 M 5.058594 19.457031 L 5.058594 19.457031 M 5.058594 19.457031 L 5.058594 19.457031 M 5.058594 19.457031 L 5.058594 19.457031 M 5.058594 19.457031 L 5.058594 19.457031 M 5.058594 19.457031 L 5.058594 19.457031 M 5.058594 19.457031 C 5.058594 19.457031 5.054688 19.457031 5.054688 19.457031 C 5.058594 19.457031 5.058594 19.457031 5.058594 19.457031 M 5.054688 19.457031 L 5.054688 19.457031 M 5.054688 19.457031 L 5.054688 19.457031 M 5.054688 19.457031 L 5.054688 19.457031 M 5.054688 19.457031 L 5.054688 19.457031 M 5.054688 19.457031 L 5.054688 19.457031 M 5.054688 19.457031 L 5.054688 19.457031 M 5.054688 19.453125 L 5.054688 19.453125 M 5.054688 19.453125 L 5.054688 19.453125 M 5.054688 19.453125 L 5.054688 19.453125 M 5.054688 19.453125 L 5.054688 19.453125 M 5.054688 19.453125 L 5.054688 19.453125 M 5.054688 19.453125 L 5.054688 19.453125 " fill-opacity="1" fill-rule="nonzero"/><path fill="#1d2022" d="M 10.230469 18.546875 C 10.226562 18.546875 10.226562 18.546875 10.226562 18.546875 L 11.558594 15.800781 C 11.554688 15.8125 10.945312 17.066406 10.230469 18.546875 " fill-opacity="1" fill-rule="nonzero"/><path fill="#2d3034" d="M 3.742188 18.097656 L 3.742188 18.097656 M 3.742188 18.097656 L 3.742188 18.097656 M 3.742188 18.097656 L 3.742188 18.097656 M 3.742188 18.097656 L 3.742188 18.097656 M 3.742188 18.097656 L 3.742188 18.097656 M 3.742188 18.097656 C 3.742188 18.097656 3.742188 18.09375 3.742188 18.09375 C 3.742188 18.09375 3.742188 18.097656 3.742188 18.097656 M 3.742188 18.09375 C 3.734375 18.085938 3.726562 18.074219 3.71875 18.050781 C 3.71875 18.054688 3.71875 18.054688 3.71875 18.058594 C 3.730469 18.074219 3.734375 18.089844 3.742188 18.09375 " fill-opacity="1" fill-rule="nonzero"/><path fill="#101213" d="M 9.1875 20.699219 C 8.433594 20.496094 7.59375 20.261719 6.867188 20.050781 C 6.507812 19.945312 6.175781 19.847656 5.894531 19.761719 C 6.738281 20.023438 8.058594 20.390625 9.179688 20.699219 L 10.226562 18.546875 C 10.226562 18.546875 10.226562 18.546875 10.230469 18.546875 C 9.886719 19.25 9.523438 20.003906 9.1875 20.699219 M 5.054688 19.453125 L 5.054688 19.453125 M 5.054688 19.453125 L 5.054688 19.453125 M 5.054688 19.453125 C 5.050781 19.453125 5.050781 19.453125 5.050781 19.453125 C 5.050781 19.453125 5.050781 19.453125 5.054688 19.453125 M 5.050781 19.453125 L 5.050781 19.453125 M 5.050781 19.453125 L 5.050781 19.453125 M 5.050781 19.453125 L 5.050781 19.453125 M 5.050781 19.453125 L 5.050781 19.453125 M 5.050781 19.453125 L 5.050781 19.453125 M 5.050781 19.453125 L 5.050781 19.453125 M 5.050781 19.453125 L 5.050781 19.453125 M 5.050781 19.453125 L 5.050781 19.453125 M 5.050781 19.453125 C 5.050781 19.453125 5.050781 19.449219 5.050781 19.449219 C 5.050781 19.449219 5.050781 19.453125 5.050781 19.453125 M 5.050781 19.449219 L 5.050781 19.449219 M 5.050781 19.449219 L 5.050781 19.449219 M 5.050781 19.449219 L 5.050781 19.449219 M 5.050781 19.449219 L 5.050781 19.449219 M 5.050781 19.449219 C 5.046875 19.449219 5.046875 19.445312 5.046875 19.445312 C 5.046875 19.445312 5.046875 19.449219 5.050781 19.449219 M 5.046875 19.445312 L 5.046875 19.445312 M 5.046875 19.445312 L 5.046875 19.445312 M 5.046875 19.445312 L 5.046875 19.445312 M 5.046875 19.445312 L 5.046875 19.445312 M 5.046875 19.445312 L 5.046875 19.445312 M 5.046875 19.445312 L 5.046875 19.445312 M 5.046875 19.445312 L 5.046875 19.445312 M 5.046875 19.445312 C 5.046875 19.445312 5.046875 19.445312 5.046875 19.441406 C 5.046875 19.445312 5.046875 19.445312 5.046875 19.445312 M 5.046875 19.441406 L 5.046875 19.441406 M 3.71875 18.058594 L 3.71875 18.058594 M 3.71875 18.058594 C 3.71875 18.054688 3.71875 18.054688 3.71875 18.050781 C 3.695312 18.007812 3.664062 17.933594 3.621094 17.832031 C 3.664062 17.9375 3.699219 18.011719 3.71875 18.058594 M 3.621094 17.832031 C 3.621094 17.828125 3.621094 17.828125 3.617188 17.824219 C 3.621094 17.828125 3.621094 17.828125 3.621094 17.832031 M 3.617188 17.824219 C 3.617188 17.824219 3.617188 17.824219 3.617188 17.820312 C 3.617188 17.824219 3.617188 17.824219 3.617188 17.824219 M 3.617188 17.820312 L 3.617188 17.820312 M 3.613281 17.816406 L 3.613281 17.816406 " fill-opacity="1" fill-rule="nonzero"/><path fill="#cbcbcb" d="M 2.105469 2.179688 C 2.390625 1.871094 6.050781 0.855469 8.109375 0.320312 C 6.050781 0.855469 2.390625 1.871094 2.105469 2.179688 M 9.417969 0.00390625 C 9.40625 0 9.402344 0 9.402344 0 C 9.402344 0 9.40625 0 9.417969 0.00390625 " fill-opacity="1" fill-rule="nonzero"/><path fill="#3b3e43" d="M 10.609375 13.347656 C 10.527344 13.238281 3.589844 10.921875 3.589844 10.921875 C 3.589844 10.921875 2.320312 6.722656 2.320312 6.640625 C 2.320312 6.558594 2.105469 2.179688 2.105469 2.179688 C 2.390625 1.871094 6.050781 0.855469 8.109375 0.320312 C 8.730469 0.160156 9.203125 0.0429688 9.402344 0 C 9.402344 0 9.40625 0 9.417969 0.00390625 C 9.4375 0.00390625 9.476562 0.0117188 9.527344 0.0195312 C 9.464844 1.796875 9.304688 6.464844 9.328125 6.53125 C 9.355469 6.613281 12.84375 11.300781 12.84375 11.300781 C 12.84375 11.300781 12.84375 11.300781 12.839844 11.300781 C 12.769531 11.300781 12.324219 11.742188 11.851562 12.214844 L 10.609375 13.347656 " fill-opacity="1" fill-rule="nonzero"/><g clip-path="url(#d20b4f635e)"><path fill="#646666" d="M 2.007812 13.691406 C 1.183594 11.53125 0.375 9.375 0.355469 9.304688 C 0.339844 9.238281 0.261719 8.535156 0.1875 7.773438 C 0.261719 8.535156 0.339844 9.238281 0.355469 9.304688 C 0.375 9.375 1.183594 11.53125 2.007812 13.691406 M 2.054688 2.238281 C 2.070312 2.222656 2.082031 2.207031 2.09375 2.191406 C 2.082031 2.207031 2.070312 2.222656 2.054688 2.238281 " fill-opacity="1" fill-rule="nonzero"/></g><g clip-path="url(#8c894712aa)"><path fill="#242629" d="M 3.742188 18.097656 L 3.742188 18.097656 M 3.742188 18.097656 L 3.742188 18.097656 M 3.742188 18.097656 L 3.742188 18.097656 M 3.742188 18.097656 L 3.742188 18.097656 M 3.742188 18.097656 L 3.742188 18.097656 M 3.742188 18.097656 L 3.742188 18.097656 M 3.589844 17.753906 C 3.296875 17.046875 2.648438 15.367188 2.007812 13.691406 C 1.183594 11.53125 0.375 9.375 0.355469 9.304688 C 0.339844 9.238281 0.261719 8.535156 0.1875 7.773438 C 0.113281 7.027344 0.046875 6.21875 0.046875 5.90625 C 0.046875 5.839844 0.0507812 5.792969 0.0585938 5.777344 C 0.128906 5.640625 1.609375 2.816406 2.054688 2.238281 C 2.070312 2.222656 2.082031 2.207031 2.09375 2.191406 C 2.097656 2.1875 2.101562 2.183594 2.105469 2.179688 C 2.105469 2.179688 2.320312 6.558594 2.320312 6.640625 C 2.320312 6.722656 3.589844 10.921875 3.589844 10.921875 C 3.589844 10.921875 10.527344 13.238281 10.609375 13.347656 L 3.589844 10.921875 L 1.519531 12.40625 C 2.289062 14.433594 3.222656 16.863281 3.589844 17.753906 M 11.851562 12.214844 C 12.324219 11.742188 12.769531 11.300781 12.839844 11.300781 C 12.84375 11.300781 12.84375 11.300781 12.84375 11.300781 L 11.851562 12.214844 " fill-opacity="1" fill-rule="nonzero"/></g><path fill="#101213" d="M 3.742188 18.097656 L 3.742188 18.097656 M 3.742188 18.097656 L 3.742188 18.097656 M 3.742188 18.097656 L 3.742188 18.097656 M 3.742188 18.097656 L 3.742188 18.097656 M 3.621094 17.832031 L 3.621094 17.832031 M 3.617188 17.824219 L 3.617188 17.824219 M 3.617188 17.820312 L 3.617188 17.820312 M 3.617188 17.820312 C 3.617188 17.820312 3.617188 17.816406 3.613281 17.816406 C 3.617188 17.816406 3.617188 17.820312 3.617188 17.820312 M 3.613281 17.816406 C 3.605469 17.796875 3.597656 17.773438 3.589844 17.753906 C 3.597656 17.773438 3.605469 17.796875 3.613281 17.816406 " fill-opacity="1" fill-rule="nonzero"/><path fill="#727474" d="M 5.082031 19.472656 L 5.082031 19.472656 M 5.078125 19.472656 L 5.078125 19.472656 M 5.078125 19.472656 L 5.078125 19.472656 M 5.078125 19.472656 C 5.078125 19.472656 5.078125 19.46875 5.078125 19.46875 C 5.078125 19.46875 5.078125 19.472656 5.078125 19.472656 M 5.078125 19.46875 L 5.078125 19.46875 M 5.078125 19.46875 L 5.078125 19.46875 M 5.078125 19.46875 C 5.074219 19.46875 5.074219 19.46875 5.074219 19.46875 C 5.074219 19.46875 5.074219 19.46875 5.078125 19.46875 M 5.074219 19.46875 L 5.074219 19.46875 M 5.074219 19.46875 L 5.074219 19.46875 M 5.074219 19.46875 L 5.074219 19.46875 M 5.074219 19.46875 L 5.074219 19.46875 M 5.074219 19.46875 L 5.074219 19.46875 M 5.074219 19.46875 L 5.074219 19.46875 M 5.074219 19.46875 L 5.074219 19.46875 M 5.074219 19.46875 L 5.074219 19.46875 M 5.074219 19.46875 C 5.074219 19.46875 5.074219 19.46875 5.070312 19.46875 C 5.070312 19.46875 5.074219 19.46875 5.074219 19.46875 M 5.070312 19.46875 L 5.070312 19.46875 M 5.070312 19.46875 L 5.070312 19.46875 M 5.070312 19.46875 L 5.070312 19.46875 M 5.070312 19.464844 L 5.070312 19.464844 M 5.070312 19.464844 L 5.070312 19.464844 M 5.070312 19.464844 L 5.070312 19.464844 M 5.070312 19.464844 L 5.070312 19.464844 M 5.066406 19.464844 L 5.066406 19.464844 M 5.066406 19.464844 L 5.066406 19.464844 M 5.066406 19.464844 L 5.066406 19.464844 M 5.066406 19.464844 L 5.066406 19.464844 M 5.066406 19.464844 L 5.066406 19.464844 M 5.066406 19.464844 L 5.066406 19.464844 M 5.066406 19.464844 L 5.066406 19.464844 M 5.066406 19.464844 L 5.066406 19.464844 M 5.066406 19.464844 L 5.066406 19.464844 M 5.066406 19.460938 L 5.066406 19.460938 M 5.066406 19.460938 C 5.0625 19.460938 5.0625 19.460938 5.0625 19.460938 C 5.0625 19.460938 5.0625 19.460938 5.066406 19.460938 M 5.0625 19.460938 L 5.0625 19.460938 M 5.0625 19.460938 L 5.0625 19.460938 M 5.0625 19.460938 L 5.0625 19.460938 M 5.0625 19.460938 L 5.0625 19.460938 M 5.0625 19.460938 L 5.0625 19.460938 M 5.0625 19.460938 L 5.0625 19.460938 M 5.0625 19.460938 L 5.0625 19.460938 M 5.0625 19.460938 L 5.0625 19.460938 M 5.0625 19.460938 C 5.058594 19.460938 5.058594 19.460938 5.058594 19.460938 C 5.058594 19.460938 5.058594 19.460938 5.0625 19.460938 M 5.058594 19.460938 L 5.058594 19.460938 M 5.058594 19.460938 L 5.058594 19.460938 M 5.058594 19.460938 C 5.058594 19.460938 5.058594 19.460938 5.058594 19.457031 C 5.058594 19.460938 5.058594 19.460938 5.058594 19.460938 M 5.058594 19.457031 L 5.058594 19.457031 M 5.058594 19.457031 L 5.058594 19.457031 M 5.058594 19.457031 L 5.058594 19.457031 M 5.058594 19.457031 L 5.058594 19.457031 M 5.058594 19.457031 L 5.058594 19.457031 M 5.058594 19.457031 L 5.058594 19.457031 M 5.058594 19.457031 L 5.058594 19.457031 M 5.058594 19.457031 L 5.058594 19.457031 M 5.058594 19.457031 L 5.058594 19.457031 M 5.058594 19.457031 L 5.058594 19.457031 M 5.054688 19.457031 L 5.054688 19.457031 M 5.054688 19.457031 L 5.054688 19.457031 M 5.054688 19.457031 L 5.054688 19.457031 M 5.054688 19.457031 L 5.054688 19.457031 M 5.054688 19.457031 L 5.054688 19.457031 M 5.054688 19.457031 L 5.054688 19.457031 M 5.054688 19.457031 L 5.054688 19.457031 M 5.054688 19.457031 C 5.054688 19.457031 5.054688 19.457031 5.054688 19.453125 C 5.054688 19.457031 5.054688 19.457031 5.054688 19.457031 M 5.054688 19.453125 L 5.054688 19.453125 M 5.054688 19.453125 L 5.054688 19.453125 M 5.054688 19.453125 L 5.054688 19.453125 M 5.054688 19.453125 L 5.054688 19.453125 M 5.054688 19.453125 L 5.054688 19.453125 M 5.054688 19.453125 L 5.054688 19.453125 M 5.054688 19.453125 L 5.054688 19.453125 M 5.054688 19.453125 L 5.054688 19.453125 M 5.050781 19.453125 L 5.050781 19.453125 M 5.050781 19.453125 L 5.050781 19.453125 M 5.050781 19.453125 L 5.050781 19.453125 M 5.050781 19.453125 L 5.050781 19.453125 M 5.050781 19.449219 L 5.050781 19.449219 M 5.046875 19.445312 L 5.046875 19.445312 " fill-opacity="1" fill-rule="nonzero"/><path fill="#27292d" d="M 5.894531 19.761719 C 5.484375 19.632812 5.183594 19.53125 5.082031 19.472656 C 5.078125 19.472656 5.078125 19.472656 5.078125 19.472656 C 5.078125 19.472656 5.078125 19.46875 5.078125 19.46875 C 5.074219 19.46875 5.074219 19.46875 5.074219 19.46875 C 5.074219 19.46875 5.070312 19.46875 5.070312 19.46875 C 5.070312 19.46875 5.070312 19.464844 5.070312 19.464844 C 5.070312 19.464844 5.070312 19.464844 5.066406 19.464844 C 5.066406 19.464844 5.066406 19.460938 5.066406 19.460938 C 5.0625 19.460938 5.0625 19.460938 5.0625 19.460938 C 5.058594 19.460938 5.058594 19.460938 5.058594 19.460938 C 5.058594 19.460938 5.058594 19.460938 5.058594 19.457031 C 5.058594 19.457031 5.058594 19.457031 5.054688 19.457031 C 5.054688 19.457031 5.054688 19.457031 5.054688 19.453125 C 5.109375 19.503906 5.429688 19.617188 5.894531 19.761719 M 5.054688 19.453125 L 5.054688 19.453125 M 5.054688 19.453125 L 5.054688 19.453125 M 5.054688 19.453125 L 5.054688 19.453125 M 5.054688 19.453125 L 5.054688 19.453125 " fill-opacity="1" fill-rule="nonzero"/><path fill="#1a1d1f" d="M 10.226562 18.546875 C 9.015625 18.410156 4.859375 17.90625 3.589844 17.753906 C 3.222656 16.863281 2.289062 14.433594 1.519531 12.40625 L 3.589844 10.921875 L 10.609375 13.347656 L 11.558594 15.800781 L 10.226562 18.546875 " fill-opacity="1" fill-rule="nonzero"/><path fill="#1a1d1f" d="M 3.742188 18.097656 C 3.742188 18.097656 3.742188 18.09375 3.742188 18.09375 C 3.734375 18.089844 3.730469 18.074219 3.71875 18.058594 C 3.730469 18.078125 3.738281 18.089844 3.742188 18.097656 M 3.71875 18.058594 L 3.71875 18.058594 " fill-opacity="1" fill-rule="nonzero"/><path fill="#101213" d="M 9.179688 20.699219 C 8.058594 20.390625 6.738281 20.023438 5.894531 19.761719 C 5.429688 19.617188 5.109375 19.503906 5.054688 19.453125 C 5.050781 19.453125 5.050781 19.453125 5.050781 19.453125 C 5.050781 19.453125 5.050781 19.449219 5.050781 19.449219 C 5.046875 19.449219 5.046875 19.445312 5.046875 19.445312 C 5.046875 19.445312 5.046875 19.445312 5.046875 19.441406 C 5.007812 19.261719 3.890625 18.28125 3.742188 18.097656 C 3.738281 18.089844 3.730469 18.078125 3.71875 18.058594 C 3.699219 18.011719 3.664062 17.9375 3.621094 17.832031 C 3.621094 17.828125 3.621094 17.828125 3.617188 17.824219 C 3.617188 17.824219 3.617188 17.824219 3.617188 17.820312 C 3.617188 17.820312 3.617188 17.816406 3.613281 17.816406 C 3.605469 17.796875 3.597656 17.773438 3.589844 17.753906 C 4.859375 17.90625 9.015625 18.410156 10.226562 18.546875 L 9.179688 20.699219 " fill-opacity="1" fill-rule="nonzero"/></svg>